<svg xmlns="http://www.w3.org/2000/svg" width="40" height="80" viewBox="0 0 40 80" fill="none"><rect x="0.5" y="0.5" width="39" height="79" rx="19.5" stroke="#878787"></rect><path fill-rule="evenodd" clip-rule="evenodd" d="M19.9161 50.2804C20.6011 47.8802 21.7114 46.1807 22.9435 45.0164C24.7019 43.3549 26.6888 42.8 28 42.8V43.9721C26.8411 43.9721 25.0356 44.4722 23.4448 45.9754C21.87 47.4635 20.3346 49.9514 20 54H19C18.6654 49.9514 17.13 47.4635 15.5552 45.9754C13.9644 44.4722 12.1589 43.9721 11 43.9721V42.8C12.3112 42.8 14.2981 43.3549 16.0565 45.0164C17.2197 46.1156 18.2743 47.6918 18.965 49.8842V26H19.9161V50.2804Z" fill="#121212"></path></svg>