<svg xmlns="http://www.w3.org/2000/svg" width="138" height="46" viewBox="0 0 138 46" fill="none"><path d="M58.9616 31.878L52.9341 23.7214L46.9066 31.878H38.333L48.4135 18.6622L38.5928 5.49799L47.0105 5.49799L52.8822 13.3965L58.7538 5.49799L67.2235 5.49799L57.4028 18.6622L67.4833 31.878H58.9616Z" fill="white"></path><path d="M83.6632 31.6199C80.7533 31.6199 78.3631 30.8283 76.4925 29.2452C74.6565 27.6276 73.7385 25.3045 73.7385 22.2759V11.6929H68.4905V5.49799L73.7385 5.49799V0L80.8573 0V5.49799L88.1838 5.49799V11.6929L80.8573 11.6929V20.882C80.8573 22.4652 81.2037 23.6009 81.8965 24.2892C82.5893 24.9431 83.7151 25.2701 85.274 25.2701C86.3825 25.2701 87.3524 25.1152 88.1838 24.8055V31.052C86.9367 31.4306 85.4299 31.6199 83.6632 31.6199Z" fill="white"></path><path d="M93.2634 31.3101V5.49799L100.382 5.49799V9.62793C100.832 8.35453 101.647 7.30484 102.824 6.47885C104.037 5.61844 105.37 5.18824 106.825 5.18824C107.726 5.18824 108.523 5.29149 109.216 5.49799V12.6738C108.072 12.2952 106.999 12.1059 105.994 12.1059C104.297 12.1059 102.928 12.7254 101.889 13.9644C100.884 15.1689 100.382 16.8381 100.382 18.9719V31.3101L93.2634 31.3101Z" fill="white"></path><path d="M123.399 31.878C119.969 31.878 117.077 30.553 114.721 27.9029C112.365 25.2529 111.188 22.0866 111.188 18.4041C111.188 14.7215 112.365 11.5552 114.721 8.90519C117.077 6.25514 119.969 4.93012 123.399 4.93012C125.061 4.93012 126.551 5.27428 127.867 5.9626C129.184 6.65093 130.188 7.45971 130.881 8.38895V5.49799L138 5.49799V31.3101L130.881 31.3101V28.4192C130.188 29.3484 129.184 30.1572 127.867 30.8455C126.551 31.5338 125.061 31.878 123.399 31.878ZM120.125 23.4632C121.337 24.7711 122.931 25.425 124.905 25.425C126.88 25.425 128.456 24.7711 129.634 23.4632C130.846 22.1554 131.453 20.469 131.453 18.4041C131.453 16.3391 130.846 14.6527 129.634 13.3449C128.456 12.0371 126.88 11.3832 124.905 11.3832C122.931 11.3832 121.337 12.0371 120.125 13.3449C118.947 14.6527 118.358 16.3391 118.358 18.4041C118.358 20.469 118.947 22.1554 120.125 23.4632Z" fill="white"></path><path fill-rule="evenodd" clip-rule="evenodd" d="M12.9881 8.39757L17.6333 16.7956L25.9763 31.878L35.2667 31.878L22.2785 8.39757L17.6333 0L12.9881 8.39757ZM14.2201 23.4891L9.29038 15.939L0 31.878H9.29038L14.2201 23.4891Z" fill="white"></path><path d="M0 45.3917L0 36.5815H2.50587C3.71666 36.5815 4.73204 37.0034 5.552 37.8472C6.37196 38.691 6.78195 39.7375 6.78195 40.9866C6.78195 42.2358 6.37196 43.2822 5.552 44.126C4.73204 44.9698 3.71666 45.3917 2.50587 45.3917H0ZM1.34489 44.0392H2.50587C3.36415 44.0392 4.0615 43.7496 4.59793 43.1706C5.14202 42.5915 5.41406 41.8635 5.41406 40.9866C5.41406 40.1097 5.14202 39.3818 4.59793 38.8027C4.0615 38.2236 3.36415 37.9341 2.50587 37.9341H1.34489L1.34489 44.0392Z" fill="#999999"></path><path d="M8.2619 45.3917L8.2619 36.5815H9.6068L9.6068 45.3917H8.2619Z" fill="#999999"></path><path d="M15.5038 45.5406C14.2241 45.5406 13.1665 45.1063 12.3312 44.2377C11.5036 43.3691 11.0898 42.2854 11.0898 40.9866C11.0898 39.7044 11.496 38.6248 12.3083 37.7479C13.1282 36.8711 14.1474 36.4326 15.3659 36.4326C16.6686 36.4326 17.7223 36.8752 18.527 37.7604L17.6074 38.7903C17.0173 38.1533 16.2701 37.8348 15.3659 37.8348C14.5229 37.8348 13.8256 38.1409 13.2738 38.753C12.7221 39.3569 12.4462 40.1015 12.4462 40.9866C12.4462 41.8966 12.7221 42.6494 13.2738 43.245C13.8332 43.8406 14.5727 44.1384 15.4923 44.1384C16.3659 44.1384 17.0173 43.9482 17.4464 43.5676V41.6071H15.4004V40.2421H18.7569V44.2749C18.4043 44.6886 17.9369 45.0029 17.3545 45.218C16.7721 45.4331 16.1552 45.5406 15.5038 45.5406Z" fill="#999999"></path><path d="M20.3853 45.3917V36.5815H21.7302V45.3917H20.3853Z" fill="#999999"></path><path d="M25.3168 45.3917V37.9713H22.9489V36.5815H29.0411V37.9713H26.6617V45.3917H25.3168Z" fill="#999999"></path><path d="M28.5239 45.3917L32.0873 36.5815H33.2597L36.8231 45.3917H35.4208L34.4897 43.0837H30.8343L29.9147 45.3917H28.5239ZM32.662 38.5421L31.3516 41.7932H33.9724L32.662 38.5421Z" fill="#999999"></path><path d="M37.8745 45.3917V36.5815H39.2194V44.0019H42.9552V45.3917H37.8745Z" fill="#999999"></path><path d="M45.2048 45.3917L48.7682 36.5815H49.9407L53.5041 45.3917H52.1017L51.1706 43.0837H47.5153L46.5957 45.3917H45.2048ZM49.343 38.5421L48.0325 41.7932H50.6534L49.343 38.5421Z" fill="#999999"></path><path d="M58.1604 45.5406C56.8806 45.5406 55.8231 45.1063 54.9878 44.2377C54.1602 43.3691 53.7464 42.2854 53.7464 40.9866C53.7464 39.7044 54.1525 38.6248 54.9648 37.7479C55.7848 36.8711 56.804 36.4326 58.0225 36.4326C59.3252 36.4326 60.3789 36.8752 61.1835 37.7604L60.2639 38.7903C59.6739 38.1533 58.9267 37.8348 58.0225 37.8348C57.1795 37.8348 56.4821 38.1409 55.9304 38.753C55.3786 39.3569 55.1028 40.1015 55.1028 40.9866C55.1028 41.8966 55.3786 42.6494 55.9304 43.245C56.4898 43.8406 57.2293 44.1384 58.1489 44.1384C59.0225 44.1384 59.6739 43.9482 60.103 43.5676V41.6071H58.0569V40.2421H61.4134V44.2749C61.0609 44.6886 60.5935 45.0029 60.0111 45.218C59.4286 45.4331 58.8118 45.5406 58.1604 45.5406Z" fill="#999999"></path><path d="M63.0419 45.3917V36.5815L67.9502 36.5815V37.9713L64.3868 37.9713V40.2297L67.2605 40.2297V41.6195H64.3868V44.0019H67.9502V45.3917H63.0419Z" fill="#999999"></path><path d="M76.6118 45.3917H75.4393L70.8414 39.0509V45.3917H69.4965V36.5815H70.669L75.2554 42.91V36.5815H76.6118V45.3917Z" fill="#999999"></path><path d="M82.3129 45.5406C81.1404 45.5406 80.1442 45.1022 79.3242 44.2253C78.5043 43.3401 78.0943 42.2606 78.0943 40.9866C78.0943 39.7127 78.5043 38.6372 79.3242 37.7604C80.1442 36.8752 81.1404 36.4326 82.3129 36.4326C83.1022 36.4326 83.8187 36.6353 84.4624 37.0406C85.1061 37.4377 85.6157 37.9796 85.9912 38.6662L84.8303 39.3859C84.2402 38.3518 83.4011 37.8348 82.3129 37.8348C81.5083 37.8348 80.8301 38.1409 80.2783 38.753C79.7266 39.3652 79.4507 40.1097 79.4507 40.9866C79.4507 41.8635 79.7266 42.608 80.2783 43.2202C80.8301 43.8323 81.5083 44.1384 82.3129 44.1384C83.4011 44.1384 84.2402 43.6214 84.8303 42.5873L85.9912 43.307C85.6157 43.9937 85.1061 44.5396 84.4624 44.945C83.8187 45.3421 83.1022 45.5406 82.3129 45.5406Z" fill="#999999"></path><path d="M89.3619 45.3917V41.6691L86.2698 36.5815H87.8446L90.0286 40.2297L92.2241 36.5815H93.8104L90.7068 41.6815V45.3917H89.3619Z" fill="#999999"></path><path d="M99.5666 45.5406C98.9152 45.5406 98.329 45.3958 97.8079 45.1063C97.2868 44.8168 96.9036 44.4321 96.6584 43.9523L97.716 43.0465C98.1681 43.7993 98.8003 44.1757 99.6126 44.1757C100.003 44.1757 100.321 44.0764 100.567 43.8778C100.812 43.671 100.935 43.4063 100.935 43.0837C100.935 42.4963 100.548 42.0496 99.7735 41.7435L98.8769 41.3961C98.2179 41.1397 97.7313 40.8129 97.4171 40.4158C97.1029 40.0105 96.9458 39.51 96.9458 38.9144C96.9458 38.1616 97.1949 37.5618 97.693 37.1151C98.1911 36.6601 98.8271 36.4326 99.6011 36.4326C100.636 36.4326 101.459 36.8338 102.072 37.6363L101.141 38.6166C100.72 38.0706 100.203 37.7976 99.5896 37.7976C99.2294 37.7976 98.9229 37.8886 98.67 38.0706C98.4248 38.2526 98.3022 38.5007 98.3022 38.8151C98.3022 39.1212 98.3941 39.3652 98.5781 39.5472C98.7696 39.7209 99.0915 39.8988 99.5436 40.0808L100.371 40.4158C101 40.6723 101.479 41.0073 101.808 41.4209C102.138 41.8345 102.299 42.3598 102.291 42.9968C102.291 43.7579 102.038 44.3742 101.532 44.8457C101.026 45.309 100.371 45.5406 99.5666 45.5406Z" fill="#999999"></path><path d="M105.231 45.3917V37.9713H102.863V36.5815H108.955V37.9713H106.575V45.3917H105.231Z" fill="#999999"></path><path d="M113.327 45.5406C112.354 45.5406 111.569 45.2139 110.971 44.5603C110.373 43.9068 110.074 43.0341 110.074 41.9421V36.5815L111.419 36.5815V41.9669C111.419 42.6535 111.592 43.1871 111.936 43.5676C112.281 43.9482 112.745 44.1384 113.327 44.1384C113.91 44.1384 114.369 43.9482 114.707 43.5676C115.051 43.1871 115.224 42.6535 115.224 41.9669V36.5815H116.569V41.9421C116.569 43.0258 116.266 43.8985 115.661 44.5603C115.055 45.2139 114.277 45.5406 113.327 45.5406Z" fill="#999999"></path><path d="M118.473 45.3917V36.5815H120.979C122.19 36.5815 123.205 37.0034 124.025 37.8472C124.845 38.691 125.255 39.7375 125.255 40.9866C125.255 42.2358 124.845 43.2822 124.025 44.126C123.205 44.9698 122.19 45.3917 120.979 45.3917H118.473ZM119.818 44.0392H120.979C121.837 44.0392 122.534 43.7496 123.071 43.1706C123.615 42.5915 123.887 41.8635 123.887 40.9866C123.887 40.1097 123.615 39.3818 123.071 38.8027C122.534 38.2236 121.837 37.9341 120.979 37.9341H119.818V44.0392Z" fill="#999999"></path><path d="M126.735 45.3917V36.5815H128.08V45.3917H126.735Z" fill="#999999"></path><path d="M133.781 44.1384C134.578 44.1384 135.253 43.8323 135.804 43.2202C136.356 42.608 136.632 41.8635 136.632 40.9866C136.632 40.1097 136.356 39.3652 135.804 38.753C135.253 38.1409 134.578 37.8348 133.781 37.8348C132.977 37.8348 132.299 38.1409 131.747 38.753C131.195 39.3652 130.919 40.1097 130.919 40.9866C130.919 41.8635 131.195 42.608 131.747 43.2202C132.299 43.8323 132.977 44.1384 133.781 44.1384ZM136.77 44.2129C135.95 45.098 134.954 45.5406 133.781 45.5406C132.609 45.5406 131.613 45.1022 130.793 44.2253C129.973 43.3401 129.563 42.2606 129.563 40.9866C129.563 39.7127 129.973 38.6372 130.793 37.7604C131.613 36.8752 132.609 36.4326 133.781 36.4326C134.954 36.4326 135.95 36.8752 136.77 37.7604C137.59 38.6455 138 39.7209 138 40.9866C138 42.2523 137.59 43.3277 136.77 44.2129Z" fill="#999999"></path></svg>